<svg xmlns="http://www.w3.org/2000/svg" width="1600" height="900" viewBox="0 0 1600 900"><rect x="0" y="0" width="1600" height="900" fill="#0B1020" stroke="none" stroke-width="0" rx="0" opacity="1"/><line x1="0" y1="0" x2="0" y2="900" stroke="#17203A" stroke-width="1"/><line x1="50" y1="0" x2="50" y2="900" stroke="#17203A" stroke-width="1"/><line x1="100" y1="0" x2="100" y2="900" stroke="#17203A" stroke-width="1"/><line x1="150" y1="0" x2="150" y2="900" stroke="#17203A" stroke-width="1"/><line x1="200" y1="0" x2="200" y2="900" stroke="#17203A" stroke-width="1"/><line x1="250" y1="0" x2="250" y2="900" stroke="#17203A" stroke-width="1"/><line x1="300" y1="0" x2="300" y2="900" stroke="#17203A" stroke-width="1"/><line x1="350" y1="0" x2="350" y2="900" stroke="#17203A" stroke-width="1"/><line x1="400" y1="0" x2="400" y2="900" stroke="#17203A" stroke-width="1"/><line x1="450" y1="0" x2="450" y2="900" stroke="#17203A" stroke-width="1"/><line x1="500" y1="0" x2="500" y2="900" stroke="#17203A" stroke-width="1"/><line x1="550" y1="0" x2="550" y2="900" stroke="#17203A" stroke-width="1"/><line x1="600" y1="0" x2="600" y2="900" stroke="#17203A" stroke-width="1"/><line x1="650" y1="0" x2="650" y2="900" stroke="#17203A" stroke-width="1"/><line x1="700" y1="0" x2="700" y2="900" stroke="#17203A" stroke-width="1"/><line x1="750" y1="0" x2="750" y2="900" stroke="#17203A" stroke-width="1"/><line x1="800" y1="0" x2="800" y2="900" stroke="#17203A" stroke-width="1"/><line x1="850" y1="0" x2="850" y2="900" stroke="#17203A" stroke-width="1"/><line x1="900" y1="0" x2="900" y2="900" stroke="#17203A" stroke-width="1"/><line x1="950" y1="0" x2="950" y2="900" stroke="#17203A" stroke-width="1"/><line x1="1000" y1="0" x2="1000" y2="900" stroke="#17203A" stroke-width="1"/><line x1="1050" y1="0" x2="1050" y2="900" stroke="#17203A" stroke-width="1"/><line x1="1100" y1="0" x2="1100" y2="900" stroke="#17203A" stroke-width="1"/><line x1="1150" y1="0" x2="1150" y2="900" stroke="#17203A" stroke-width="1"/><line x1="1200" y1="0" x2="1200" y2="900" stroke="#17203A" stroke-width="1"/><line x1="1250" y1="0" x2="1250" y2="900" stroke="#17203A" stroke-width="1"/><line x1="1300" y1="0" x2="1300" y2="900" stroke="#17203A" stroke-width="1"/><line x1="1350" y1="0" x2="1350" y2="900" stroke="#17203A" stroke-width="1"/><line x1="1400" y1="0" x2="1400" y2="900" stroke="#17203A" stroke-width="1"/><line x1="1450" y1="0" x2="1450" y2="900" stroke="#17203A" stroke-width="1"/><line x1="1500" y1="0" x2="1500" y2="900" stroke="#17203A" stroke-width="1"/><line x1="1550" y1="0" x2="1550" y2="900" stroke="#17203A" stroke-width="1"/><line x1="1600" y1="0" x2="1600" y2="900" stroke="#17203A" stroke-width="1"/><line x1="0" y1="0" x2="1600" y2="0" stroke="#17203A" stroke-width="1"/><line x1="0" y1="50" x2="1600" y2="50" stroke="#17203A" stroke-width="1"/><line x1="0" y1="100" x2="1600" y2="100" stroke="#17203A" stroke-width="1"/><line x1="0" y1="150" x2="1600" y2="150" stroke="#17203A" stroke-width="1"/><line x1="0" y1="200" x2="1600" y2="200" stroke="#17203A" stroke-width="1"/><line x1="0" y1="250" x2="1600" y2="250" stroke="#17203A" stroke-width="1"/><line x1="0" y1="300" x2="1600" y2="300" stroke="#17203A" stroke-width="1"/><line x1="0" y1="350" x2="1600" y2="350" stroke="#17203A" stroke-width="1"/><line x1="0" y1="400" x2="1600" y2="400" stroke="#17203A" stroke-width="1"/><line x1="0" y1="450" x2="1600" y2="450" stroke="#17203A" stroke-width="1"/><line x1="0" y1="500" x2="1600" y2="500" stroke="#17203A" stroke-width="1"/><line x1="0" y1="550" x2="1600" y2="550" stroke="#17203A" stroke-width="1"/><line x1="0" y1="600" x2="1600" y2="600" stroke="#17203A" stroke-width="1"/><line x1="0" y1="650" x2="1600" y2="650" stroke="#17203A" stroke-width="1"/><line x1="0" y1="700" x2="1600" y2="700" stroke="#17203A" stroke-width="1"/><line x1="0" y1="750" x2="1600" y2="750" stroke="#17203A" stroke-width="1"/><line x1="0" y1="800" x2="1600" y2="800" stroke="#17203A" stroke-width="1"/><line x1="0" y1="850" x2="1600" y2="850" stroke="#17203A" stroke-width="1"/><line x1="0" y1="900" x2="1600" y2="900" stroke="#17203A" stroke-width="1"/><rect x="36" y="36" width="1528" height="828" fill="none" stroke="#2A3656" stroke-width="2" rx="24" opacity="1"/><text x="800.0" y="150" font-family="DejaVu Sans" font-size="28" fill="#F5A524" text-anchor="middle" font-weight="bold" letter-spacing="8">SELF-FEEDING</text><text x="800.0" y="250" font-family="DejaVu Sans" font-size="62" fill="#EAF0FF" text-anchor="middle" font-weight="bold" letter-spacing="0">Out of tasks? It invents the next one.</text><rect x="140.0" y="430" width="300" height="90" fill="#141C33" stroke="#22D3EE" stroke-width="2" rx="12" opacity="1"/><text x="290.0" y="487" font-family="DejaVu Sans" font-size="30" fill="#EAF0FF" text-anchor="middle" font-weight="bold" letter-spacing="0">research</text><text x="460.0" y="487" font-family="DejaVu Sans" font-size="40" fill="#8C99B8" text-anchor="middle" font-weight="normal" letter-spacing="0">›</text><rect x="480.0" y="430" width="300" height="90" fill="#141C33" stroke="#22D3EE" stroke-width="2" rx="12" opacity="1"/><text x="630.0" y="487" font-family="DejaVu Sans" font-size="30" fill="#EAF0FF" text-anchor="middle" font-weight="bold" letter-spacing="0">propose</text><text x="800.0" y="487" font-family="DejaVu Sans" font-size="40" fill="#8C99B8" text-anchor="middle" font-weight="normal" letter-spacing="0">›</text><rect x="820.0" y="430" width="300" height="90" fill="#141C33" stroke="#22D3EE" stroke-width="2" rx="12" opacity="1"/><text x="970.0" y="487" font-family="DejaVu Sans" font-size="30" fill="#EAF0FF" text-anchor="middle" font-weight="bold" letter-spacing="0">build safe</text><text x="1140.0" y="487" font-family="DejaVu Sans" font-size="40" fill="#8C99B8" text-anchor="middle" font-weight="normal" letter-spacing="0">›</text><rect x="1160.0" y="430" width="300" height="90" fill="#141C33" stroke="#F5A524" stroke-width="2" rx="12" opacity="1"/><text x="1310.0" y="487" font-family="DejaVu Sans" font-size="30" fill="#EAF0FF" text-anchor="middle" font-weight="bold" letter-spacing="0">park risky</text><text x="800.0" y="640" font-family="DejaVu Sans" font-size="27" fill="#8C99B8" text-anchor="middle" font-weight="normal" letter-spacing="0">empty backlog → researches competitors + your own code → ships the safe wins,</text><text x="800.0" y="680" font-family="DejaVu Sans" font-size="27" fill="#8C99B8" text-anchor="middle" font-weight="normal" letter-spacing="0">parks the risky ones for your sign-off. it feeds itself.</text><text x="800.0" y="836" font-family="DejaVu Sans" font-size="24" fill="#8C99B8" text-anchor="middle" font-weight="normal" letter-spacing="0">autonomy-loop  ·  a Claude Code plugin  ·  MIT</text></svg>